<svg xmlns="http://www.w3.org/2000/svg" viewBox="0 0 100 100">
  <defs>
    <linearGradient id="hexGrad" x1="0%" y1="0%" x2="100%" y2="100%">
      <stop offset="0%" style="stop-color:#4ade80;stop-opacity:1" />
      <stop offset="100%" style="stop-color:#22c55e;stop-opacity:1" />
    </linearGradient>
  </defs>
  
  <!-- Hexagon background -->
  <polygon points="50,5 85,25 85,65 50,85 15,65 15,25" fill="url(#hexGrad)" stroke="#16a34a" stroke-width="2"/>
  
  <!-- Letter S -->
  <path d="M35 30 Q40 25 50 25 Q60 25 65 30 Q65 35 60 35 L45 35 Q40 35 40 40 Q40 45 45 45 L55 45 Q65 45 65 55 Q65 65 55 65 L45 65 Q35 65 35 55" 
        fill="black" stroke="black" stroke-width="2" stroke-linejoin="round"/>
  
  <!-- Inner S details -->
  <path d="M40 30 Q45 28 50 28 Q55 28 60 30" fill="none" stroke="black" stroke-width="3" stroke-linecap="round"/>
  <path d="M40 50 Q45 52 50 52 Q55 52 60 50" fill="none" stroke="black" stroke-width="3" stroke-linecap="round"/>
</svg>